<svg width="20" height="20" viewBox="0 0 20 20" fill="none" xmlns="http://www.w3.org/2000/svg">
<path fill-rule="evenodd" clip-rule="evenodd" d="M16.9059 4.36922C17.2301 4.36922 17.5 4.63838 17.5 4.98088V5.29754C17.5 5.63171 17.2301 5.90921 16.9059 5.90921H3.09488C2.76988 5.90921 2.5 5.63171 2.5 5.29754V4.98088C2.5 4.63838 2.76988 4.36922 3.09488 4.36922H5.52464C6.01821 4.36922 6.44775 4.01839 6.55879 3.5234L6.68603 2.95507C6.88378 2.18091 7.53458 1.66675 8.27939 1.66675H11.7206C12.4573 1.66675 13.1154 2.18091 13.3059 2.91424L13.442 3.52256C13.5522 4.01839 13.9818 4.36922 14.4762 4.36922H16.9059ZM15.6713 15.9452C15.925 13.581 16.3691 7.9644 16.3691 7.90773C16.3854 7.73607 16.3294 7.57357 16.2184 7.44274C16.0993 7.32024 15.9485 7.24774 15.7824 7.24774H4.22359C4.05663 7.24774 3.89778 7.32024 3.78756 7.44274C3.67572 7.57357 3.62061 7.73607 3.62871 7.90773C3.6302 7.91815 3.64614 8.11599 3.67278 8.44675C3.79114 9.91611 4.12079 14.0086 4.33381 15.9452C4.48456 17.3718 5.42064 18.2685 6.77654 18.301C7.82284 18.3251 8.90075 18.3335 10.003 18.3335C11.0412 18.3335 12.0956 18.3251 13.1743 18.301C14.5772 18.2768 15.5125 17.396 15.6713 15.9452Z" fill="#CF3636"/>
</svg>
