<svg width="22" height="22" viewBox="-5 0 34 17" fill="none" xmlns="http://www.w3.org/2000/svg">
  <path fill-rule="evenodd" clip-rule="evenodd" d="M20.5562 2.3155L11.8759 9.504C11.6292 9.70836 11.3189 9.8202 10.9986 9.8202C10.6783 9.8202 10.368 9.70836 10.1214 9.504L1.44512 2.3155C1.39857 2.45563 1.37489 2.60234 1.375 2.75V13.75C1.375 14.1147 1.51987 14.4644 1.77773 14.7223C2.03559 14.9801 2.38533 15.125 2.75 15.125H19.25C19.6147 15.125 19.9644 14.9801 20.2223 14.7223C20.4801 14.4644 20.625 14.1147 20.625 13.75V2.75C20.6256 2.60242 20.6023 2.45571 20.5562 2.3155ZM2.75 0H19.25C19.9793 0 20.6788 0.289731 21.1945 0.805456C21.7103 1.32118 22 2.02065 22 2.75V13.75C22 14.4793 21.7103 15.1788 21.1945 15.6945C20.6788 16.2103 19.9793 16.5 19.25 16.5H2.75C2.02065 16.5 1.32118 16.2103 0.805456 15.6945C0.289731 15.1788 0 14.4793 0 13.75V2.75C0 2.02065 0.289731 1.32118 0.805456 0.805456C1.32118 0.289731 2.02065 0 2.75 0ZM2.46125 1.375L10.1283 7.70413C10.3738 7.90694 10.6822 8.01823 11.0006 8.01898C11.3191 8.01974 11.628 7.90991 11.8745 7.70825L19.6185 1.375H2.46125Z" fill="#828282"/>
</svg>
