<svg width="16" height="14" viewBox="0 0 16 14" fill="none" xmlns="http://www.w3.org/2000/svg">
<path d="M2.33329 4.33314C2.33342 3.70108 2.49694 3.07979 2.80797 2.52956C3.119 1.97933 3.56698 1.51884 4.10845 1.19278C4.64991 0.866726 5.26647 0.686173 5.89828 0.668647C6.5301 0.65112 7.15571 0.797214 7.71442 1.09275C8.27313 1.38829 8.74595 1.82323 9.08701 2.35538C9.42806 2.88752 9.62577 3.49879 9.66094 4.12987C9.69611 4.76095 9.56755 5.3904 9.28774 5.95714C9.00793 6.52389 8.58636 7.00868 8.06396 7.36447C9.18896 7.77709 10.1647 8.51695 10.8657 9.48881C11.5667 10.4607 11.9608 11.6201 11.9973 12.8178C11.9957 12.9469 11.9443 13.0705 11.8539 13.1626C11.7634 13.2548 11.6408 13.3084 11.5117 13.3122C11.3826 13.3161 11.257 13.2699 11.1611 13.1834C11.0653 13.0969 11.0066 12.9766 10.9973 12.8478C10.9576 11.5488 10.4136 10.3162 9.48074 9.41141C8.54783 8.50658 7.29926 8.00054 5.99962 8.00054C4.69999 8.00054 3.45142 8.50658 2.51851 9.41141C1.5856 10.3162 1.04166 11.5488 1.00196 12.8478C0.995282 12.9784 0.937742 13.1011 0.841663 13.1898C0.745584 13.2784 0.618609 13.3259 0.487939 13.3221C0.357269 13.3182 0.233298 13.2634 0.142584 13.1692C0.0518706 13.0751 0.00162932 12.9492 0.00262374 12.8185C0.0389913 11.6206 0.433028 10.4611 1.13401 9.48908C1.835 8.51709 2.81085 7.77714 3.93596 7.36447C3.44201 7.02806 3.03778 6.57602 2.75845 6.04769C2.47912 5.51936 2.33317 4.93076 2.33329 4.33314ZM5.99996 1.66647C5.29271 1.66647 4.61444 1.94742 4.11434 2.44752C3.61424 2.94762 3.33329 3.62589 3.33329 4.33314C3.33329 5.04038 3.61424 5.71866 4.11434 6.21876C4.61444 6.71885 5.29271 6.9998 5.99996 6.9998C6.7072 6.9998 7.38548 6.71885 7.88557 6.21876C8.38567 5.71866 8.66662 5.04038 8.66662 4.33314C8.66662 3.62589 8.38567 2.94762 7.88557 2.44752C7.38548 1.94742 6.7072 1.66647 5.99996 1.66647ZM11.5266 4.33314C11.4284 4.33314 11.332 4.33981 11.2373 4.35314C11.1712 4.36497 11.1034 4.36337 11.0379 4.34844C10.9725 4.3335 10.9107 4.30553 10.8563 4.2662C10.8018 4.22686 10.7559 4.17697 10.7212 4.1195C10.6865 4.06203 10.6637 3.99815 10.6542 3.93168C10.6447 3.86521 10.6487 3.7975 10.6659 3.73261C10.6832 3.66771 10.7133 3.60695 10.7545 3.55396C10.7957 3.50096 10.8472 3.45681 10.9059 3.42414C10.9646 3.39147 11.0292 3.37095 11.096 3.36381C11.759 3.26794 12.4351 3.39527 13.0179 3.72575C13.6006 4.05624 14.0569 4.57112 14.315 5.18936C14.5731 5.8076 14.6183 6.4941 14.4435 7.14083C14.2686 7.78756 13.8837 8.3578 13.3493 8.7618C14.1349 9.11357 14.8019 9.68514 15.2699 10.4076C15.7378 11.13 15.9868 11.9724 15.9866 12.8331C15.9866 12.9657 15.9339 13.0929 15.8402 13.1867C15.7464 13.2805 15.6192 13.3331 15.4866 13.3331C15.354 13.3331 15.2268 13.2805 15.1331 13.1867C15.0393 13.0929 14.9866 12.9657 14.9866 12.8331C14.9869 12.0892 14.7473 11.3649 14.3034 10.7678C13.8596 10.1708 13.2351 9.73263 12.5226 9.51847L12.1666 9.41181V8.29447L12.44 8.15514C12.8451 7.9499 13.1693 7.61411 13.3602 7.20197C13.551 6.78983 13.5974 6.32539 13.4918 5.88364C13.3863 5.4419 13.1349 5.04861 12.7784 4.76729C12.4218 4.48597 11.9808 4.33302 11.5266 4.33314Z" fill="#707070"/>
</svg>
